<?xml version="1.0" encoding="UTF-8" standalone="no"?>
<svg
   height="32"
   width="32"
   version="1.1"
   id="svg8"
   sodipodi:docname="errorbox.svg"
   inkscape:version="1.2.2 (732a01da63, 2022-12-09)"
   xmlns:inkscape="http://www.inkscape.org/namespaces/inkscape"
   xmlns:sodipodi="http://sodipodi.sourceforge.net/DTD/sodipodi-0.dtd"
   xmlns="http://www.w3.org/2000/svg"
   xmlns:svg="http://www.w3.org/2000/svg">
  <defs
     id="defs12" />
  <sodipodi:namedview
     id="namedview10"
     pagecolor="#ffffff"
     bordercolor="#000000"
     borderopacity="0.25"
     inkscape:showpageshadow="2"
     inkscape:pageopacity="0.0"
     inkscape:pagecheckerboard="0"
     inkscape:deskcolor="#d1d1d1"
     showgrid="false"
     inkscape:zoom="25.90625"
     inkscape:cx="15.054282"
     inkscape:cy="16.0193"
     inkscape:window-width="1920"
     inkscape:window-height="1009"
     inkscape:window-x="-8"
     inkscape:window-y="-8"
     inkscape:window-maximized="1"
     inkscape:current-layer="svg8" />
  <path
     d="m16 3a13 13 0 0 0 -13 13 13 13 0 0 0 13 13 13 13 0 0 0 13-13 13 13 0 0 0 -13-13zm0 1a12 12 0 0 1 12 12 12 12 0 0 1 -12 12 12 12 0 0 1 -12-12 12 12 0 0 1 12-12z"
     fill="#d42314"
     id="path2" />
  <path
     d="m16 4a12 12 0 0 0 -12 12 12 12 0 0 0 12 12 12 12 0 0 0 12-12 12 12 0 0 0 -12-12zm-7.0703125 3.9277344c.2556191 0 .5111626.0990533.7070313.2949218l6.3632812 6.3632818 6.363281-6.3632818c.391737-.3917371 1.022325-.3917371 1.414063 0 .391737.3917372.391737 1.0223254 0 1.4140626l-6.363282 6.3632812 6.363282 6.363281c.391737.391737.391737 1.022325 0 1.414063-.391738.391737-1.022326.391737-1.414063 0l-6.363281-6.363282-6.3632812 6.363282c-.3917372.391737-1.0223254.391737-1.4140626 0-.3917371-.391738-.3917371-1.022326 0-1.414063l6.3632818-6.363281-6.3632818-6.3632812c-.3917371-.3917372-.3917371-1.0223254 0-1.4140626.1958686-.1958685.4514122-.2949218.7070313-.2949218z"
     fill="#ff9198"
     id="path4"
     style="fill:#ff313b;fill-opacity:1" />
  <path
     d="m8.2218254 8.2218254c-.3917371.3917372-.3917371 1.0224764 0 1.4142136l6.3639606 6.363961-6.3639606 6.363961c-.3917371.391737-.3917371 1.022476 0 1.414214.3917372.391737 1.0224764.391737 1.4142136 0l6.363961-6.363961 6.363961 6.363961c.391737.391737 1.022476.391737 1.414214 0 .391737-.391738.391737-1.022477 0-1.414214l-6.363961-6.363961 6.363961-6.363961c.391737-.3917372.391737-1.0224764 0-1.4142136-.391738-.3917371-1.022477-.3917371-1.414214 0l-6.363961 6.3639606-6.363961-6.3639606c-.3917372-.3917371-1.0224764-.3917371-1.4142136 0z"
     fill="#fafafa"
     id="path6" />
</svg>
